<svg width="1536" height="1024" viewBox="0 0 1536 1024" fill="none" xmlns="http://www.w3.org/2000/svg">
<rect width="1536" height="1024" fill="#1E1E1E"/>
<g clip-path="url(#clip0_0_1)">
<mask id="mask0_0_1" style="mask-type:luminance" maskUnits="userSpaceOnUse" x="0" y="0" width="1536" height="1024">
<path d="M1536 0H0V1024H1536V0Z" fill="white"/>
</mask>
<g mask="url(#mask0_0_1)">
<path d="M1536 0H0V1024H1536V0Z" fill="black"/>
<path d="M2172 999.908L-636.25 999.907" stroke="#C9C9C9" stroke-opacity="0.32" stroke-width="1.60601"/>
<path d="M2172 937.502H-636.25" stroke="#C9C9C9" stroke-opacity="0.32" stroke-width="1.60601"/>
<path d="M2172 875.097H-636.249" stroke="#C9C9C9" stroke-opacity="0.32" stroke-width="1.60601"/>
<path d="M2172 812.691H-636.25" stroke="#C9C9C9" stroke-opacity="0.32" stroke-width="1.60601"/>
<path d="M2172 750.286H-636.25" stroke="#C9C9C9" stroke-opacity="0.32" stroke-width="1.60601"/>
<path d="M2172 687.88H-636.249" stroke="#C9C9C9" stroke-opacity="0.32" stroke-width="1.60601"/>
<path d="M2172 625.475L-636.25 625.474" stroke="#C9C9C9" stroke-opacity="0.32" stroke-width="1.60601"/>
<path d="M2172 563.069H-636.25" stroke="#C9C9C9" stroke-opacity="0.32" stroke-width="1.60601"/>
<path d="M2172 500.664H-636.249" stroke="#C9C9C9" stroke-opacity="0.32" stroke-width="1.60601"/>
<path d="M2172 438.259L-636.249 438.258" stroke="#C9C9C9" stroke-opacity="0.32" stroke-width="1.60601"/>
<path d="M2172 375.853H-636.249" stroke="#C9C9C9" stroke-opacity="0.32" stroke-width="1.60601"/>
<path d="M2172 313.447H-636.25" stroke="#C9C9C9" stroke-opacity="0.32" stroke-width="1.60601"/>
<path d="M2172 251.042H-636.249" stroke="#C9C9C9" stroke-opacity="0.32" stroke-width="1.60601"/>
<path d="M2172 188.636H-636.25" stroke="#C9C9C9" stroke-opacity="0.32" stroke-width="1.60601"/>
<path d="M2172 126.231H-636.249" stroke="#C9C9C9" stroke-opacity="0.32" stroke-width="1.60601"/>
<path d="M2172 63.8254L-636.249 63.8252" stroke="#C9C9C9" stroke-opacity="0.32" stroke-width="1.60601"/>
<path d="M2172 1.41987L-636.25 1.41962" stroke="#C9C9C9" stroke-opacity="0.32" stroke-width="1.60601"/>
<path d="M49.4095 2060L49.4094 -748.25" stroke="#C9C9C9" stroke-opacity="0.32" stroke-width="1.60601"/>
<path d="M111.815 2060V-748.249" stroke="#C9C9C9" stroke-opacity="0.32" stroke-width="1.60601"/>
<path d="M174.22 2060V-748.25" stroke="#C9C9C9" stroke-opacity="0.32" stroke-width="1.60601"/>
<path d="M236.626 2060V-748.25" stroke="#C9C9C9" stroke-opacity="0.32" stroke-width="1.60601"/>
<path d="M299.031 2060V-748.249" stroke="#C9C9C9" stroke-opacity="0.32" stroke-width="1.60601"/>
<path d="M361.437 2060V-748.249" stroke="#C9C9C9" stroke-opacity="0.32" stroke-width="1.60601"/>
<path d="M423.843 2060V-748.25" stroke="#C9C9C9" stroke-opacity="0.32" stroke-width="1.60601"/>
<path d="M486.248 2060V-748.25" stroke="#C9C9C9" stroke-opacity="0.32" stroke-width="1.60601"/>
<path d="M548.654 2060V-748.249" stroke="#C9C9C9" stroke-opacity="0.32" stroke-width="1.60601"/>
<path d="M611.059 2060V-748.25" stroke="#C9C9C9" stroke-opacity="0.32" stroke-width="1.60601"/>
<path d="M673.465 2060V-748.25" stroke="#C9C9C9" stroke-opacity="0.32" stroke-width="1.60601"/>
<path d="M735.871 2060L735.87 -748.249" stroke="#C9C9C9" stroke-opacity="0.32" stroke-width="1.60601"/>
<path d="M798.276 2060V-748.25" stroke="#C9C9C9" stroke-opacity="0.32" stroke-width="1.60601"/>
<path d="M860.681 2060V-748.25" stroke="#C9C9C9" stroke-opacity="0.32" stroke-width="1.60601"/>
<path d="M923.086 2060V-748.249" stroke="#C9C9C9" stroke-opacity="0.32" stroke-width="1.60601"/>
<path d="M985.492 2060V-748.249" stroke="#C9C9C9" stroke-opacity="0.32" stroke-width="1.60601"/>
<path d="M1047.9 2060V-748.25" stroke="#C9C9C9" stroke-opacity="0.32" stroke-width="1.60601"/>
<path d="M1110.3 2060V-748.25" stroke="#C9C9C9" stroke-opacity="0.32" stroke-width="1.60601"/>
<path d="M1172.71 2060V-748.249" stroke="#C9C9C9" stroke-opacity="0.32" stroke-width="1.60601"/>
<path d="M1235.11 2060V-748.25" stroke="#C9C9C9" stroke-opacity="0.32" stroke-width="1.60601"/>
<path d="M1297.52 2060V-748.249" stroke="#C9C9C9" stroke-opacity="0.32" stroke-width="1.60601"/>
<path d="M1359.93 2060V-748.249" stroke="#C9C9C9" stroke-opacity="0.32" stroke-width="1.60601"/>
<path d="M1422.33 2060V-748.25" stroke="#C9C9C9" stroke-opacity="0.32" stroke-width="1.60601"/>
<path d="M1484.74 2060V-748.25" stroke="#C9C9C9" stroke-opacity="0.32" stroke-width="1.60601"/>
<path d="M1498.31 261.612C1537.69 261.612 1569.62 229.687 1569.62 190.306C1569.62 150.925 1537.69 119 1498.31 119C1458.93 119 1427 150.925 1427 190.306C1427 229.687 1458.93 261.612 1498.31 261.612Z" fill="#E84639"/>
<path d="M1183.01 379.731L1087.79 334.025" stroke="#D7D5D5" stroke-width="0.98622"/>
<path d="M703.867 222.862C771.484 222.862 826.298 168.048 826.298 100.431C826.298 32.8142 771.484 -22 703.867 -22C636.25 -22 581.436 32.8142 581.436 100.431C581.436 168.048 636.25 222.862 703.867 222.862Z" fill="#4286F5"/>
<path d="M1084.24 797.86L1237.59 851.451" stroke="#D9D7D7" stroke-width="0.98622"/>
<path d="M1332.28 291.168C1329.96 295.178 1324.84 296.551 1320.83 294.237C1316.82 291.922 1315.44 286.795 1317.76 282.785C1320.07 278.776 1325.2 277.402 1329.21 279.717C1333.22 282.032 1334.59 287.159 1332.28 291.168Z" stroke="#D7D5D5" stroke-width="0.98622"/>
<path d="M1200.46 380.958L1317.33 291.212" stroke="#D7D5D5" stroke-width="0.98622"/>
<path d="M201.575 213.214C228.536 213.214 250.393 191.357 250.393 164.396C250.393 137.435 228.536 115.578 201.575 115.578C174.614 115.578 152.757 137.435 152.757 164.396C152.757 191.357 174.614 213.214 201.575 213.214Z" stroke="#D7D5D5" stroke-width="0.98622"/>
<path d="M515.29 385.653C515.29 396.056 506.857 404.489 496.455 404.489C486.052 404.489 477.619 396.056 477.619 385.653C477.619 375.251 486.052 366.818 496.455 366.818C506.857 366.818 515.29 375.251 515.29 385.653Z" fill="#30A953"/>
<path d="M140.148 460.995C165.411 460.995 185.891 440.515 185.891 415.252C185.891 389.989 165.411 369.509 140.148 369.509C114.885 369.509 94.4047 389.989 94.4047 415.252C94.4047 440.515 114.885 460.995 140.148 460.995Z" fill="#F4B400"/>
<path d="M360.792 949.372C369.708 949.372 376.937 942.143 376.937 933.227C376.937 924.311 369.708 917.082 360.792 917.082C351.876 917.082 344.647 924.311 344.647 933.227C344.647 942.143 351.876 949.372 360.792 949.372Z" fill="#3DA856"/>
<path d="M752.301 917.083C769.391 917.083 783.245 903.229 783.245 886.139C783.245 869.049 769.391 855.195 752.301 855.195C735.211 855.195 721.357 869.049 721.357 886.139C721.357 903.229 735.211 917.083 752.301 917.083Z" fill="#EA4335"/>
<path d="M627.129 987.89C631.214 987.89 634.526 984.578 634.526 980.493C634.526 976.408 631.214 973.096 627.129 973.096C623.044 973.096 619.732 976.408 619.732 980.493C619.732 984.578 623.044 987.89 627.129 987.89Z" fill="#4286F5"/>
<path d="M1042.91 1131C1086.75 1131 1122.29 1095.46 1122.29 1051.62C1122.29 1007.78 1086.75 972.242 1042.91 972.242C999.071 972.242 963.532 1007.78 963.532 1051.62C963.532 1095.46 999.071 1131 1042.91 1131Z" fill="#0F9D58"/>
<path d="M1201.66 415.252C1220.24 415.252 1235.29 400.193 1235.29 381.617C1235.29 363.041 1220.24 347.982 1201.66 347.982C1183.08 347.982 1168.03 363.041 1168.03 381.617C1168.03 400.193 1183.08 415.252 1201.66 415.252Z" fill="#F4B400"/>
<path d="M1139.77 454.268C1146.46 454.268 1151.88 448.847 1151.88 442.16C1151.88 435.473 1146.46 430.052 1139.77 430.052C1133.08 430.052 1127.66 435.473 1127.66 442.16C1127.66 448.847 1133.08 454.268 1139.77 454.268Z" fill="#E84639"/>
<path d="M1405.04 908.553C1411.73 908.553 1417.15 903.132 1417.15 896.445C1417.15 889.758 1411.73 884.336 1405.04 884.336C1398.35 884.336 1392.93 889.758 1392.93 896.445C1392.93 903.132 1398.35 908.553 1405.04 908.553Z" fill="#F4B400"/>
<path d="M1336.22 710.762C1352.83 710.762 1366.3 697.295 1366.3 680.682C1366.3 664.069 1352.83 650.602 1336.22 650.602C1319.61 650.602 1306.14 664.069 1306.14 680.682C1306.14 697.295 1319.61 710.762 1336.22 710.762Z" fill="#E84639"/>
<path d="M1480.16 575.354C1496.51 575.354 1509.76 562.102 1509.76 545.755C1509.76 529.408 1496.51 516.156 1480.16 516.156C1463.81 516.156 1450.56 529.408 1450.56 545.755C1450.56 562.102 1463.81 575.354 1480.16 575.354Z" fill="#4286EF"/>
<path d="M1079.23 814.833C1088.89 814.833 1096.72 807.003 1096.72 797.343C1096.72 787.684 1088.89 779.853 1079.23 779.853C1069.57 779.853 1061.74 787.684 1061.74 797.343C1061.74 807.003 1069.57 814.833 1079.23 814.833Z" fill="#4286F5"/>
<path d="M341.618 331.56C346.248 331.56 350.001 327.807 350.001 323.177C350.001 318.547 346.248 314.794 341.618 314.794C336.988 314.794 333.235 318.547 333.235 323.177C333.235 327.807 336.988 331.56 341.618 331.56Z" stroke="#D7D5D5" stroke-width="0.98622"/>
<path d="M403.75 296.056C416.005 296.056 425.94 286.121 425.94 273.866C425.94 261.611 416.005 251.676 403.75 251.676C391.495 251.676 381.56 261.611 381.56 273.866C381.56 286.121 391.495 296.056 403.75 296.056Z" stroke="#D7D5D5" stroke-width="0.98622"/>
<path d="M387.285 289.05L348.822 318.637" stroke="#D7D5D5" stroke-width="0.98622"/>
<path d="M155.317 650.851C155.861 641.042 148.35 632.65 138.541 632.107C128.732 631.563 120.34 639.074 119.797 648.883C119.253 658.692 126.764 667.084 136.573 667.627C146.382 668.171 154.774 660.66 155.317 650.851Z" stroke="#D7D5D5" stroke-width="0.98622"/>
<path d="M354.913 724.537C355.699 710.35 344.835 698.213 330.649 697.427C316.462 696.641 304.325 707.504 303.539 721.691C302.753 735.877 313.617 748.015 327.803 748.801C341.99 749.587 354.127 738.723 354.913 724.537Z" stroke="#D7D5D5" stroke-width="0.98622"/>
<path d="M334.765 862.352C335.081 856.649 330.714 851.77 325.011 851.454C319.308 851.138 314.429 855.505 314.113 861.208C313.797 866.911 318.164 871.79 323.867 872.106C329.57 872.422 334.449 868.055 334.765 862.352Z" stroke="#D7D5D5" stroke-width="0.98622"/>
<path d="M521.247 759.099C521.563 753.396 517.196 748.517 511.493 748.201C505.79 747.885 500.911 752.252 500.595 757.955C500.279 763.658 504.646 768.537 510.349 768.853C516.052 769.169 520.931 764.802 521.247 759.099Z" stroke="#D7D5D5" stroke-width="0.98622"/>
<path d="M530.17 819.066C530.405 814.822 527.155 811.191 522.912 810.956C518.668 810.721 515.037 813.971 514.802 818.214C514.567 822.458 517.817 826.089 522.06 826.324C526.304 826.559 529.934 823.309 530.17 819.066Z" stroke="#D7D5D5" stroke-width="0.98622"/>
<path d="M268.387 589.702C268.733 583.452 263.947 578.104 257.697 577.758C251.447 577.412 246.099 582.198 245.753 588.448C245.407 594.698 250.193 600.046 256.443 600.392C262.693 600.738 268.041 595.952 268.387 589.702Z" stroke="#D7D5D5" stroke-width="0.98622"/>
<path d="M246.739 593.59L151.915 640.105" stroke="#D7D5D5" stroke-width="0.98622"/>
<path d="M153.112 658.713L306.459 712.303" stroke="#D9D7D7" stroke-width="0.98622"/>
<path d="M327.181 749.126L319.93 852.492" stroke="#D7D5D5" stroke-width="0.98622"/>
<path d="M502.104 764.279L334.572 861.215" stroke="#D7D5D5" stroke-width="0.98622"/>
<path d="M514.475 768.199L521.562 811.822" stroke="#D7D5D5" stroke-width="0.98622"/>
<path d="M78.2027 334.192C72.0752 323.579 58.504 319.942 47.8907 326.07C37.2775 332.198 33.6411 345.769 39.7687 356.382C45.8963 366.995 59.4674 370.632 70.0806 364.504C80.6939 358.376 84.3303 344.805 78.2027 334.192Z" stroke="#D7D5D5" stroke-width="0.98622"/>
<path d="M1089.22 330.236C1089.53 324.533 1085.17 319.654 1079.46 319.338C1073.76 319.022 1068.88 323.389 1068.56 329.092C1068.25 334.795 1072.61 339.674 1078.32 339.99C1084.02 340.306 1088.9 335.939 1089.22 330.236Z" stroke="#D7D5D5" stroke-width="0.98622"/>
<path d="M964.397 223.153C964.969 212.831 957.064 203.999 946.741 203.427C936.419 202.855 927.587 210.76 927.015 221.083C926.443 231.406 934.348 240.237 944.671 240.809C954.993 241.381 963.825 233.476 964.397 223.153Z" stroke="#D7D5D5" stroke-width="0.98622"/>
<path d="M1286.05 863.684C1286.83 849.497 1275.97 837.36 1261.78 836.574C1247.6 835.788 1235.46 846.652 1234.67 860.838C1233.89 875.025 1244.75 887.162 1258.94 887.948C1273.12 888.734 1285.26 877.87 1286.05 863.684Z" stroke="#D7D5D5" stroke-width="0.98622"/>
<path d="M1536 0H0V1024H1536V0Z" fill="black" fill-opacity="0.37"/>
<path d="M809.303 451.948C820.957 445.254 832.58 438.506 844.274 431.882C855.374 425.593 868.434 431.393 870.95 443.631C872.406 450.711 869.245 458.359 862.853 462.084C841.898 474.296 820.913 486.459 799.823 498.436C793.295 502.143 786.571 501.461 780.622 496.918C774.579 492.306 772.675 485.945 774.092 478.541C775.71 472.904 779.414 469.136 784.464 466.317C792.815 461.657 801.03 456.75 809.303 451.948Z" fill="#F4B400"/>
<path d="M817.859 447.081C806.234 440.336 794.58 433.643 782.995 426.829C771.999 420.36 770.493 406.15 779.833 397.851C785.236 393.051 793.439 391.963 799.861 395.636C820.915 407.678 841.941 419.771 862.858 432.047C869.332 435.846 872.103 442.012 871.145 449.435C870.172 456.973 865.615 461.803 858.495 464.278C852.804 465.696 847.689 464.372 842.723 461.407C834.51 456.506 826.154 451.844 817.859 447.081Z" fill="#0F9D58"/>
<path d="M711.905 442.308C704.445 446.546 696.982 450.776 689.53 455.028C685.171 457.514 680.86 460.086 676.478 462.531C667.65 467.459 657.161 464.571 652.155 455.891C647.378 447.609 650.124 436.871 658.626 431.907C679.414 419.774 700.256 407.728 721.173 395.818C727.588 392.165 734.244 392.624 740.176 396.991C746.437 401.6 748.487 408.087 747.081 415.691C746.209 417.53 745.688 419.687 744.382 421.137C742.258 423.494 739.844 425.752 737.156 427.41C728.839 432.538 720.336 437.365 711.905 442.308Z" fill="#EA4335"/>
<path d="M703.353 447.062C710.753 451.402 718.149 455.752 725.557 460.08C729.889 462.612 734.272 465.06 738.58 467.63C747.262 472.813 750.006 483.34 744.991 492.014C740.206 500.293 729.535 503.285 720.985 498.403C700.083 486.466 679.231 474.441 658.457 462.281C652.086 458.552 649.156 452.558 649.972 445.237C650.833 437.509 655.425 432.492 662.714 429.907C664.743 429.743 666.871 429.115 668.78 429.522C671.884 430.183 675.046 431.144 677.826 432.643C686.425 437.281 694.857 442.232 703.353 447.062Z" fill="#4285F5"/>
<path d="M439.308 552.771C438.92 551.554 438.398 550.465 437.743 549.502C437.102 548.526 436.333 547.697 435.437 547.015C434.541 546.32 433.519 545.792 432.369 545.431C431.232 545.07 429.982 544.89 428.619 544.89C426.306 544.89 424.22 545.485 422.362 546.675C420.503 547.864 419.033 549.609 417.95 551.909C416.88 554.195 416.345 556.996 416.345 560.312C416.345 563.641 416.887 566.455 417.97 568.754C419.053 571.054 420.537 572.799 422.422 573.989C424.307 575.178 426.453 575.773 428.859 575.773C431.092 575.773 433.037 575.319 434.695 574.41C436.366 573.501 437.656 572.217 438.566 570.559C439.488 568.888 439.949 566.923 439.949 564.663L441.554 564.964H429.802V559.85H445.946V564.523C445.946 567.972 445.21 570.967 443.74 573.507C442.282 576.034 440.263 577.986 437.683 579.363C435.116 580.74 432.175 581.429 428.859 581.429C425.143 581.429 421.88 580.573 419.073 578.862C416.278 577.151 414.099 574.724 412.535 571.582C410.971 568.427 410.189 564.683 410.189 560.352C410.189 557.076 410.643 554.135 411.552 551.528C412.461 548.921 413.738 546.708 415.383 544.89C417.041 543.058 418.986 541.661 421.219 540.698C423.465 539.722 425.918 539.234 428.578 539.234C430.798 539.234 432.863 539.562 434.775 540.217C436.701 540.872 438.412 541.801 439.909 543.005C441.42 544.208 442.67 545.638 443.659 547.296C444.649 548.941 445.317 550.766 445.665 552.771H439.308ZM466.306 581.489C463.418 581.489 460.898 580.827 458.745 579.504C456.593 578.18 454.922 576.328 453.732 573.948C452.542 571.569 451.947 568.788 451.947 565.606C451.947 562.411 452.542 559.616 453.732 557.223C454.922 554.83 456.593 552.972 458.745 551.648C460.898 550.324 463.418 549.663 466.306 549.663C469.194 549.663 471.714 550.324 473.866 551.648C476.019 552.972 477.69 554.83 478.88 557.223C480.07 559.616 480.665 562.411 480.665 565.606C480.665 568.788 480.07 571.569 478.88 573.948C477.69 576.328 476.019 578.18 473.866 579.504C471.714 580.827 469.194 581.489 466.306 581.489ZM466.326 576.455C468.198 576.455 469.748 575.961 470.978 574.971C472.208 573.982 473.118 572.665 473.706 571.021C474.307 569.376 474.608 567.565 474.608 565.586C474.608 563.621 474.307 561.816 473.706 560.171C473.118 558.513 472.208 557.183 470.978 556.18C469.748 555.178 468.198 554.676 466.326 554.676C464.441 554.676 462.876 555.178 461.633 556.18C460.403 557.183 459.487 558.513 458.886 560.171C458.297 561.816 458.003 563.621 458.003 565.586C458.003 567.565 458.297 569.376 458.886 571.021C459.487 572.665 460.403 573.982 461.633 574.971C462.876 575.961 464.441 576.455 466.326 576.455ZM500.333 581.489C497.445 581.489 494.925 580.827 492.772 579.504C490.62 578.18 488.949 576.328 487.759 573.948C486.569 571.569 485.974 568.788 485.974 565.606C485.974 562.411 486.569 559.616 487.759 557.223C488.949 554.83 490.62 552.972 492.772 551.648C494.925 550.324 497.445 549.663 500.333 549.663C503.221 549.663 505.741 550.324 507.893 551.648C510.046 552.972 511.717 554.83 512.907 557.223C514.097 559.616 514.692 562.411 514.692 565.606C514.692 568.788 514.097 571.569 512.907 573.948C511.717 576.328 510.046 578.18 507.893 579.504C505.741 580.827 503.221 581.489 500.333 581.489ZM500.353 576.455C502.225 576.455 503.776 575.961 505.006 574.971C506.236 573.982 507.145 572.665 507.733 571.021C508.335 569.376 508.635 567.565 508.635 565.586C508.635 563.621 508.335 561.816 507.733 560.171C507.145 558.513 506.236 557.183 505.006 556.18C503.776 555.178 502.225 554.676 500.353 554.676C498.468 554.676 496.904 555.178 495.66 556.18C494.43 557.183 493.515 558.513 492.913 560.171C492.325 561.816 492.03 563.621 492.03 565.586C492.03 567.565 492.325 569.376 492.913 571.021C493.515 572.665 494.43 573.982 495.66 574.971C496.904 575.961 498.468 576.455 500.353 576.455ZM534.3 593.06C531.853 593.06 529.748 592.739 527.983 592.098C526.232 591.456 524.801 590.607 523.691 589.551C522.582 588.495 521.753 587.338 521.205 586.081L526.359 583.956C526.72 584.544 527.201 585.166 527.802 585.821C528.417 586.489 529.246 587.057 530.289 587.525C531.345 587.993 532.702 588.227 534.36 588.227C536.633 588.227 538.511 587.672 539.995 586.563C541.48 585.466 542.222 583.715 542.222 581.308V575.252H541.84C541.48 575.907 540.958 576.636 540.276 577.438C539.608 578.24 538.685 578.935 537.509 579.524C536.332 580.112 534.801 580.406 532.916 580.406C530.483 580.406 528.29 579.838 526.338 578.701C524.4 577.552 522.862 575.86 521.726 573.628C520.603 571.382 520.041 568.621 520.041 565.345C520.041 562.07 520.596 559.262 521.706 556.922C522.829 554.583 524.366 552.791 526.318 551.548C528.27 550.291 530.483 549.663 532.956 549.663C534.868 549.663 536.412 549.984 537.589 550.625C538.765 551.254 539.681 551.989 540.336 552.831C541.005 553.674 541.52 554.416 541.881 555.057H542.322V550.064H548.198V581.549C548.198 584.196 547.583 586.369 546.353 588.067C545.123 589.765 543.458 591.021 541.359 591.837C539.274 592.653 536.92 593.06 534.3 593.06ZM534.24 575.433C535.965 575.433 537.422 575.031 538.612 574.229C539.815 573.414 540.724 572.251 541.339 570.74C541.968 569.216 542.282 567.391 542.282 565.265C542.282 563.193 541.974 561.368 541.359 559.79C540.744 558.213 539.842 556.983 538.652 556.1C537.462 555.204 535.991 554.756 534.24 554.756C532.435 554.756 530.931 555.224 529.728 556.16C528.524 557.083 527.615 558.34 527 559.93C526.399 561.521 526.098 563.3 526.098 565.265C526.098 567.284 526.405 569.055 527.02 570.579C527.635 572.103 528.544 573.293 529.748 574.149C530.964 575.005 532.462 575.433 534.24 575.433ZM562.236 539.796V580.867H556.24V539.796H562.236ZM583.579 581.489C580.544 581.489 577.93 580.841 575.737 579.544C573.558 578.233 571.874 576.395 570.684 574.029C569.507 571.649 568.919 568.861 568.919 565.666C568.919 562.511 569.507 559.73 570.684 557.323C571.874 554.917 573.531 553.038 575.657 551.688C577.796 550.338 580.296 549.663 583.157 549.663C584.896 549.663 586.58 549.95 588.211 550.525C589.842 551.1 591.306 552.002 592.603 553.232C593.9 554.462 594.923 556.06 595.671 558.025C596.42 559.977 596.794 562.35 596.794 565.145V567.27H572.308V562.778H590.919C590.919 561.201 590.598 559.803 589.956 558.587C589.314 557.357 588.412 556.388 587.249 555.679C586.099 554.97 584.748 554.616 583.198 554.616C581.513 554.616 580.042 555.031 578.786 555.859C577.542 556.675 576.58 557.745 575.898 559.068C575.229 560.378 574.895 561.802 574.895 563.34V566.849C574.895 568.908 575.256 570.66 575.978 572.103C576.713 573.547 577.736 574.65 579.046 575.412C580.357 576.161 581.887 576.536 583.639 576.536C584.775 576.536 585.811 576.375 586.747 576.054C587.683 575.72 588.492 575.225 589.174 574.57C589.856 573.915 590.377 573.106 590.738 572.144L596.413 573.166C595.959 574.838 595.143 576.302 593.967 577.558C592.804 578.802 591.34 579.771 589.575 580.466C587.823 581.148 585.825 581.489 583.579 581.489ZM632.17 580.867H618.874V539.796H632.591C636.616 539.796 640.072 540.618 642.96 542.263C645.847 543.894 648.06 546.24 649.598 549.302C651.148 552.35 651.924 556.007 651.924 560.271C651.924 564.55 651.142 568.226 649.578 571.301C648.027 574.376 645.781 576.743 642.839 578.401C639.898 580.045 636.342 580.867 632.17 580.867ZM625.071 575.453H631.829C634.958 575.453 637.558 574.864 639.631 573.688C641.703 572.498 643.254 570.78 644.283 568.534C645.313 566.274 645.827 563.52 645.827 560.271C645.827 557.049 645.313 554.315 644.283 552.069C643.267 549.823 641.75 548.118 639.731 546.955C637.712 545.792 635.205 545.211 632.21 545.211H625.071V575.453ZM672.424 581.489C669.39 581.489 666.776 580.841 664.583 579.544C662.404 578.233 660.719 576.395 659.529 574.029C658.353 571.649 657.765 568.861 657.765 565.666C657.765 562.511 658.353 559.73 659.529 557.323C660.719 554.917 662.377 553.038 664.503 551.688C666.642 550.338 669.142 549.663 672.003 549.663C673.741 549.663 675.426 549.95 677.057 550.525C678.688 551.1 680.152 552.002 681.449 553.232C682.746 554.462 683.769 556.06 684.517 558.025C685.266 559.977 685.64 562.35 685.64 565.145V567.27H661.154V562.778H679.764C679.764 561.201 679.443 559.803 678.802 558.587C678.16 557.357 677.258 556.388 676.094 555.679C674.945 554.97 673.594 554.616 672.043 554.616C670.359 554.616 668.888 555.031 667.631 555.859C666.388 556.675 665.425 557.745 664.744 559.068C664.075 560.378 663.741 561.802 663.741 563.34V566.849C663.741 568.908 664.102 570.66 664.824 572.103C665.559 573.547 666.582 574.65 667.892 575.412C669.202 576.161 670.733 576.536 672.485 576.536C673.621 576.536 674.657 576.375 675.593 576.054C676.529 575.72 677.338 575.225 678.02 574.57C678.701 573.915 679.223 573.106 679.584 572.144L685.259 573.166C684.805 574.838 683.989 576.302 682.813 577.558C681.649 578.802 680.185 579.771 678.421 580.466C676.669 581.148 674.671 581.489 672.424 581.489ZM717.762 550.064L706.592 580.867H700.175L688.984 550.064H695.422L703.223 573.768H703.544L711.325 550.064H717.762ZM735.626 581.489C732.591 581.489 729.977 580.841 727.785 579.544C725.605 578.233 723.921 576.395 722.731 574.029C721.554 571.649 720.966 568.861 720.966 565.666C720.966 562.511 721.554 559.73 722.731 557.323C723.921 554.917 725.579 553.038 727.704 551.688C729.843 550.338 732.344 549.663 735.205 549.663C736.943 549.663 738.627 549.95 740.258 550.525C741.889 551.1 743.353 552.002 744.65 553.232C745.947 554.462 746.97 556.06 747.719 558.025C748.467 559.977 748.842 562.35 748.842 565.145V567.27H724.355V562.778H742.966C742.966 561.201 742.645 559.803 742.003 558.587C741.361 557.357 740.459 556.388 739.296 555.679C738.146 554.97 736.796 554.616 735.245 554.616C733.56 554.616 732.09 555.031 730.833 555.859C729.589 556.675 728.627 557.745 727.945 559.068C727.276 560.378 726.942 561.802 726.942 563.34V566.849C726.942 568.908 727.303 570.66 728.025 572.103C728.76 573.547 729.783 574.65 731.093 575.412C732.404 576.161 733.935 576.536 735.686 576.536C736.822 576.536 737.858 576.375 738.794 576.054C739.73 575.72 740.539 575.225 741.221 574.57C741.903 573.915 742.424 573.106 742.785 572.144L748.461 573.166C748.006 574.838 747.19 576.302 746.014 577.558C744.851 578.802 743.387 579.771 741.622 580.466C739.871 581.148 737.872 581.489 735.626 581.489ZM761.491 539.796V580.867H755.495V539.796H761.491ZM782.533 581.489C779.645 581.489 777.125 580.827 774.972 579.504C772.82 578.18 771.149 576.328 769.959 573.948C768.769 571.569 768.174 568.788 768.174 565.606C768.174 562.411 768.769 559.616 769.959 557.223C771.149 554.83 772.82 552.972 774.972 551.648C777.125 550.324 779.645 549.663 782.533 549.663C785.421 549.663 787.941 550.324 790.093 551.648C792.246 552.972 793.917 554.83 795.107 557.223C796.297 559.616 796.892 562.411 796.892 565.606C796.892 568.788 796.297 571.569 795.107 573.948C793.917 576.328 792.246 578.18 790.093 579.504C787.941 580.827 785.421 581.489 782.533 581.489ZM782.553 576.455C784.425 576.455 785.976 575.961 787.206 574.971C788.436 573.982 789.345 572.665 789.933 571.021C790.535 569.376 790.835 567.565 790.835 565.586C790.835 563.621 790.535 561.816 789.933 560.171C789.345 558.513 788.436 557.183 787.206 556.18C785.976 555.178 784.425 554.676 782.553 554.676C780.668 554.676 779.104 555.178 777.86 556.18C776.63 557.183 775.714 558.513 775.113 560.171C774.525 561.816 774.23 563.621 774.23 565.586C774.23 567.565 774.525 569.376 775.113 571.021C775.714 572.665 776.63 573.982 777.86 574.971C779.104 575.961 780.668 576.455 782.553 576.455ZM803.585 592.419V550.064H809.441V555.057H809.942C810.29 554.416 810.791 553.674 811.446 552.831C812.101 551.989 813.011 551.254 814.174 550.625C815.337 549.984 816.874 549.663 818.786 549.663C821.273 549.663 823.492 550.291 825.444 551.548C827.396 552.805 828.927 554.616 830.037 556.983C831.16 559.349 831.721 562.197 831.721 565.526C831.721 568.855 831.166 571.709 830.057 574.089C828.947 576.455 827.423 578.28 825.484 579.564C823.546 580.834 821.333 581.469 818.846 581.469C816.975 581.469 815.444 581.155 814.254 580.526C813.077 579.898 812.155 579.163 811.486 578.32C810.818 577.478 810.303 576.729 809.942 576.074H809.581V592.419H803.585ZM809.461 565.466C809.461 567.631 809.775 569.53 810.403 571.161C811.032 572.792 811.941 574.069 813.131 574.991C814.321 575.9 815.778 576.355 817.503 576.355C819.294 576.355 820.792 575.88 821.995 574.931C823.198 573.969 824.107 572.665 824.722 571.021C825.351 569.376 825.665 567.524 825.665 565.466C825.665 563.433 825.357 561.608 824.742 559.991C824.141 558.373 823.232 557.096 822.015 556.16C820.812 555.224 819.308 554.756 817.503 554.756C815.765 554.756 814.294 555.204 813.091 556.1C811.901 556.996 810.998 558.246 810.383 559.85C809.768 561.455 809.461 563.326 809.461 565.466ZM851.715 581.489C848.681 581.489 846.067 580.841 843.874 579.544C841.695 578.233 840.01 576.395 838.82 574.029C837.644 571.649 837.056 568.861 837.056 565.666C837.056 562.511 837.644 559.73 838.82 557.323C840.01 554.917 841.668 553.038 843.794 551.688C845.933 550.338 848.433 549.663 851.294 549.663C853.032 549.663 854.717 549.95 856.348 550.525C857.979 551.1 859.443 552.002 860.74 553.232C862.037 554.462 863.06 556.06 863.808 558.025C864.557 559.977 864.931 562.35 864.931 565.145V567.27H840.445V562.778H859.055C859.055 561.201 858.734 559.803 858.093 558.587C857.451 557.357 856.549 556.388 855.385 555.679C854.236 554.97 852.885 554.616 851.334 554.616C849.65 554.616 848.179 555.031 846.922 555.859C845.679 556.675 844.716 557.745 844.035 559.068C843.366 560.378 843.032 561.802 843.032 563.34V566.849C843.032 568.908 843.393 570.66 844.115 572.103C844.85 573.547 845.873 574.65 847.183 575.412C848.493 576.161 850.024 576.536 851.776 576.536C852.912 576.536 853.948 576.375 854.884 576.054C855.82 575.72 856.629 575.225 857.311 574.57C857.992 573.915 858.514 573.106 858.875 572.144L864.55 573.166C864.096 574.838 863.28 576.302 862.104 577.558C860.94 578.802 859.476 579.771 857.712 580.466C855.96 581.148 853.962 581.489 851.715 581.489ZM871.584 580.867V550.064H877.38V554.957H877.701C878.262 553.299 879.252 551.996 880.669 551.046C882.099 550.084 883.717 549.603 885.522 549.603C885.896 549.603 886.338 549.616 886.846 549.643C887.367 549.669 887.775 549.703 888.069 549.743V555.478C887.828 555.412 887.4 555.338 886.785 555.258C886.17 555.164 885.555 555.117 884.94 555.117C883.523 555.117 882.26 555.418 881.15 556.02C880.054 556.608 879.185 557.43 878.543 558.487C877.901 559.529 877.581 560.719 877.581 562.056V580.867H871.584ZM936.48 552.771C936.092 551.554 935.571 550.465 934.916 549.502C934.274 548.526 933.505 547.697 932.61 547.015C931.714 546.32 930.691 545.792 929.541 545.431C928.405 545.07 927.155 544.89 925.791 544.89C923.478 544.89 921.393 545.485 919.534 546.675C917.676 547.864 916.205 549.609 915.122 551.909C914.053 554.195 913.518 556.996 913.518 560.312C913.518 563.641 914.059 566.455 915.142 568.754C916.225 571.054 917.709 572.799 919.594 573.989C921.48 575.178 923.625 575.773 926.032 575.773C928.265 575.773 930.21 575.319 931.868 574.41C933.539 573.501 934.829 572.217 935.738 570.559C936.661 568.888 937.122 566.923 937.122 564.663L938.726 564.964H926.974V559.85H943.118V564.523C943.118 567.972 942.383 570.967 940.912 573.507C939.455 576.034 937.436 577.986 934.856 579.363C932.289 580.74 929.348 581.429 926.032 581.429C922.315 581.429 919.053 580.573 916.245 578.862C913.451 577.151 911.272 574.724 909.708 571.582C908.143 568.427 907.361 564.683 907.361 560.352C907.361 557.076 907.816 554.135 908.725 551.528C909.634 548.921 910.911 546.708 912.555 544.89C914.213 543.058 916.158 541.661 918.391 540.698C920.637 539.722 923.091 539.234 925.751 539.234C927.97 539.234 930.036 539.562 931.948 540.217C933.873 540.872 935.584 541.801 937.082 543.005C938.593 544.208 939.843 545.638 940.832 547.296C941.821 548.941 942.49 550.766 942.837 552.771H936.48ZM950.503 580.867V550.064H956.299V554.957H956.62C957.181 553.299 958.171 551.996 959.588 551.046C961.018 550.084 962.636 549.603 964.441 549.603C964.815 549.603 965.257 549.616 965.765 549.643C966.286 549.669 966.694 549.703 966.988 549.743V555.478C966.747 555.412 966.319 555.338 965.704 555.258C965.089 555.164 964.474 555.117 963.859 555.117C962.442 555.117 961.179 555.418 960.069 556.02C958.973 556.608 958.104 557.43 957.462 558.487C956.82 559.529 956.499 560.719 956.499 562.056V580.867H950.503ZM984.049 581.489C981.161 581.489 978.641 580.827 976.489 579.504C974.336 578.18 972.665 576.328 971.475 573.948C970.285 571.569 969.69 568.788 969.69 565.606C969.69 562.411 970.285 559.616 971.475 557.223C972.665 554.83 974.336 552.972 976.489 551.648C978.641 550.324 981.161 549.663 984.049 549.663C986.937 549.663 989.457 550.324 991.61 551.648C993.762 552.972 995.433 554.83 996.623 557.223C997.813 559.616 998.408 562.411 998.408 565.606C998.408 568.788 997.813 571.569 996.623 573.948C995.433 576.328 993.762 578.18 991.61 579.504C989.457 580.827 986.937 581.489 984.049 581.489ZM984.069 576.455C985.941 576.455 987.492 575.961 988.722 574.971C989.952 573.982 990.861 572.665 991.449 571.021C992.051 569.376 992.352 567.565 992.352 565.586C992.352 563.621 992.051 561.816 991.449 560.171C990.861 558.513 989.952 557.183 988.722 556.18C987.492 555.178 985.941 554.676 984.069 554.676C982.184 554.676 980.62 555.178 979.376 556.18C978.146 557.183 977.231 558.513 976.629 560.171C976.041 561.816 975.747 563.621 975.747 565.586C975.747 567.565 976.041 569.376 976.629 571.021C977.231 572.665 978.146 573.982 979.376 574.971C980.62 575.961 982.184 576.455 984.069 576.455ZM1024.61 568.093V550.064H1030.63V580.867H1024.73V575.533H1024.41C1023.7 577.177 1022.57 578.548 1021 579.644C1019.45 580.727 1017.52 581.268 1015.21 581.268C1013.23 581.268 1011.48 580.834 1009.95 579.965C1008.44 579.082 1007.25 577.779 1006.38 576.054C1005.53 574.33 1005.1 572.197 1005.1 569.657V550.064H1011.1V568.935C1011.1 571.034 1011.68 572.705 1012.84 573.948C1014.01 575.192 1015.52 575.814 1017.37 575.814C1018.5 575.814 1019.61 575.533 1020.72 574.971C1021.85 574.41 1022.78 573.561 1023.51 572.424C1024.26 571.288 1024.63 569.844 1024.61 568.093ZM1038.69 592.419V550.064H1044.54V555.057H1045.04C1045.39 554.416 1045.89 553.674 1046.55 552.831C1047.2 551.989 1048.11 551.254 1049.28 550.625C1050.44 549.984 1051.98 549.663 1053.89 549.663C1056.38 549.663 1058.59 550.291 1060.55 551.548C1062.5 552.805 1064.03 554.616 1065.14 556.983C1066.26 559.349 1066.82 562.197 1066.82 565.526C1066.82 568.855 1066.27 571.709 1065.16 574.089C1064.05 576.455 1062.53 578.28 1060.59 579.564C1058.65 580.834 1056.44 581.469 1053.95 581.469C1052.08 581.469 1050.55 581.155 1049.36 580.526C1048.18 579.898 1047.26 579.163 1046.59 578.32C1045.92 577.478 1045.41 576.729 1045.04 576.074H1044.68V592.419H1038.69ZM1044.56 565.466C1044.56 567.631 1044.88 569.53 1045.51 571.161C1046.13 572.792 1047.04 574.069 1048.23 574.991C1049.42 575.9 1050.88 576.355 1052.6 576.355C1054.4 576.355 1055.89 575.88 1057.1 574.931C1058.3 573.969 1059.21 572.665 1059.82 571.021C1060.45 569.376 1060.77 567.524 1060.77 565.466C1060.77 563.433 1060.46 561.608 1059.84 559.991C1059.24 558.373 1058.33 557.096 1057.12 556.16C1055.91 555.224 1054.41 554.756 1052.6 554.756C1050.87 554.756 1049.4 555.204 1048.19 556.1C1047 556.996 1046.1 558.246 1045.49 559.85C1044.87 561.455 1044.56 563.326 1044.56 565.466ZM1096.62 557.584L1091.19 558.547C1090.96 557.852 1090.6 557.19 1090.11 556.561C1089.63 555.933 1088.97 555.418 1088.14 555.017C1087.31 554.616 1086.28 554.416 1085.03 554.416C1083.33 554.416 1081.92 554.797 1080.78 555.559C1079.64 556.307 1079.08 557.277 1079.08 558.467C1079.08 559.496 1079.46 560.325 1080.22 560.953C1080.98 561.582 1082.21 562.096 1083.91 562.497L1088.8 563.62C1091.64 564.276 1093.75 565.285 1095.14 566.649C1096.53 568.012 1097.23 569.784 1097.23 571.963C1097.23 573.808 1096.69 575.453 1095.62 576.896C1094.57 578.327 1093.09 579.45 1091.19 580.266C1089.3 581.081 1087.12 581.489 1084.63 581.489C1081.18 581.489 1078.37 580.754 1076.19 579.283C1074.01 577.799 1072.67 575.693 1072.18 572.966L1077.97 572.083C1078.33 573.594 1079.08 574.737 1080.2 575.513C1081.32 576.275 1082.79 576.656 1084.59 576.656C1086.56 576.656 1088.13 576.248 1089.3 575.433C1090.48 574.604 1091.07 573.594 1091.07 572.404C1091.07 571.442 1090.71 570.633 1089.99 569.978C1089.28 569.323 1088.19 568.828 1086.72 568.494L1081.5 567.351C1078.63 566.696 1076.5 565.653 1075.13 564.222C1073.76 562.792 1073.08 560.98 1073.08 558.787C1073.08 556.969 1073.59 555.378 1074.6 554.014C1075.62 552.651 1077.02 551.588 1078.82 550.826C1080.61 550.05 1082.66 549.663 1084.97 549.663C1088.3 549.663 1090.92 550.385 1092.83 551.829C1094.75 553.259 1096.01 555.178 1096.62 557.584Z" fill="white"/>
<path d="M602.425 624.167H595.781V604.559H602.559C604.506 604.559 606.178 604.952 607.576 605.737C608.98 606.515 610.059 607.636 610.812 609.097C611.565 610.559 611.942 612.308 611.942 614.344C611.942 616.386 611.562 618.142 610.803 619.61C610.05 621.078 608.961 622.204 607.538 622.989C606.121 623.774 604.417 624.167 602.425 624.167ZM599.333 621.094H602.253C603.619 621.094 604.758 620.845 605.671 620.347C606.584 619.843 607.27 619.093 607.729 618.097C608.189 617.095 608.419 615.844 608.419 614.344C608.419 612.844 608.189 611.599 607.729 610.61C607.27 609.614 606.59 608.871 605.69 608.379C604.797 607.881 603.686 607.632 602.358 607.632H599.333V621.094ZM616.061 624.377C615.48 624.377 614.983 624.173 614.568 623.765C614.153 623.356 613.949 622.858 613.955 622.271C613.949 621.697 614.153 621.205 614.568 620.797C614.983 620.388 615.48 620.184 616.061 620.184C616.623 620.184 617.111 620.388 617.526 620.797C617.947 621.205 618.161 621.697 618.167 622.271C618.161 622.66 618.059 623.015 617.861 623.334C617.67 623.653 617.414 623.908 617.095 624.1C616.782 624.285 616.438 624.377 616.061 624.377ZM626.641 604.559H630.652L635.449 613.233H635.64L640.437 604.559H644.448L637.316 616.852V624.167H633.773V616.852L626.641 604.559ZM647.419 624.377C646.838 624.377 646.34 624.173 645.925 623.765C645.51 623.356 645.306 622.858 645.312 622.271C645.306 621.697 645.51 621.205 645.925 620.797C646.34 620.388 646.838 620.184 647.419 620.184C647.98 620.184 648.469 620.388 648.883 620.797C649.305 621.205 649.518 621.697 649.525 622.271C649.518 622.66 649.416 623.015 649.218 623.334C649.027 623.653 648.772 623.908 648.453 624.1C648.14 624.285 647.795 624.377 647.419 624.377ZM659.338 624.167V604.559H666.691C668.197 604.559 669.461 604.84 670.482 605.402C671.51 605.963 672.286 606.736 672.809 607.719C673.339 608.695 673.604 609.806 673.604 611.05C673.604 612.308 673.339 613.425 672.809 614.401C672.279 615.378 671.497 616.147 670.463 616.709C669.429 617.264 668.156 617.542 666.643 617.542H661.77V614.621H666.165C667.045 614.621 667.767 614.468 668.328 614.162C668.89 613.856 669.305 613.434 669.573 612.898C669.847 612.362 669.985 611.746 669.985 611.05C669.985 610.355 669.847 609.742 669.573 609.212C669.305 608.682 668.887 608.271 668.319 607.977C667.757 607.677 667.033 607.527 666.145 607.527H662.89V624.167H659.338ZM680.504 624.464C679.572 624.464 678.733 624.298 677.986 623.966C677.246 623.627 676.658 623.13 676.224 622.472C675.797 621.815 675.583 621.004 675.583 620.04C675.583 619.211 675.736 618.525 676.043 617.982C676.349 617.439 676.767 617.005 677.297 616.68C677.827 616.354 678.423 616.109 679.087 615.943C679.757 615.77 680.45 615.646 681.165 615.569C682.026 615.48 682.725 615.4 683.261 615.33C683.798 615.253 684.187 615.138 684.429 614.985C684.678 614.826 684.803 614.58 684.803 614.248V614.191C684.803 613.469 684.589 612.911 684.161 612.515C683.734 612.119 683.118 611.922 682.314 611.922C681.465 611.922 680.791 612.107 680.293 612.477C679.802 612.847 679.47 613.284 679.298 613.789L676.062 613.329C676.317 612.435 676.738 611.689 677.325 611.089C677.913 610.482 678.631 610.029 679.48 609.729C680.329 609.423 681.267 609.27 682.294 609.27C683.003 609.27 683.708 609.353 684.41 609.519C685.112 609.684 685.754 609.959 686.335 610.342C686.915 610.718 687.381 611.232 687.732 611.883C688.09 612.534 688.269 613.348 688.269 614.325V624.167H684.937V622.147H684.822C684.611 622.555 684.315 622.938 683.932 623.296C683.555 623.647 683.079 623.931 682.505 624.148C681.937 624.358 681.27 624.464 680.504 624.464ZM681.404 621.917C682.1 621.917 682.703 621.78 683.214 621.505C683.724 621.224 684.117 620.854 684.391 620.395C684.672 619.935 684.812 619.434 684.812 618.892V617.159C684.704 617.248 684.519 617.331 684.257 617.408C684.002 617.484 683.715 617.551 683.395 617.609C683.076 617.666 682.76 617.717 682.448 617.762C682.135 617.806 681.864 617.845 681.634 617.877C681.117 617.947 680.654 618.062 680.246 618.221C679.837 618.381 679.515 618.604 679.279 618.892C679.042 619.172 678.924 619.536 678.924 619.983C678.924 620.621 679.157 621.103 679.623 621.429C680.089 621.754 680.683 621.917 681.404 621.917ZM699.097 609.461V612.142H690.643V609.461H699.097ZM692.73 605.938H696.196V619.744C696.196 620.21 696.266 620.567 696.407 620.816C696.553 621.058 696.745 621.224 696.981 621.314C697.217 621.403 697.479 621.448 697.766 621.448C697.983 621.448 698.181 621.432 698.36 621.4C698.545 621.368 698.685 621.339 698.781 621.314L699.365 624.023C699.18 624.087 698.915 624.157 698.57 624.234C698.232 624.31 697.817 624.355 697.326 624.368C696.458 624.393 695.676 624.263 694.98 623.975C694.284 623.682 693.732 623.229 693.324 622.616C692.922 622.003 692.724 621.237 692.73 620.318V605.938ZM701.995 624.167V609.461H705.461V624.167H701.995ZM703.738 607.374C703.189 607.374 702.717 607.192 702.321 606.828C701.925 606.458 701.727 606.014 701.727 605.497C701.727 604.974 701.925 604.53 702.321 604.167C702.717 603.796 703.189 603.611 703.738 603.611C704.293 603.611 704.765 603.796 705.155 604.167C705.551 604.53 705.748 604.974 705.748 605.497C705.748 606.014 705.551 606.458 705.155 606.828C704.765 607.192 704.293 607.374 703.738 607.374ZM712.491 604.559V624.167H709.025V604.559H712.491ZM739.679 611.175H736.098C735.996 610.588 735.808 610.067 735.533 609.614C735.259 609.155 734.917 608.765 734.509 608.446C734.1 608.127 733.634 607.888 733.111 607.728C732.594 607.562 732.036 607.479 731.436 607.479C730.37 607.479 729.425 607.747 728.602 608.283C727.778 608.813 727.134 609.592 726.668 610.62C726.202 611.641 725.969 612.889 725.969 614.363C725.969 615.863 726.202 617.127 726.668 618.154C727.14 619.176 727.785 619.948 728.602 620.471C729.425 620.988 730.366 621.247 731.426 621.247C732.013 621.247 732.562 621.17 733.073 621.017C733.59 620.857 734.052 620.624 734.461 620.318C734.876 620.012 735.224 619.635 735.505 619.188C735.792 618.742 735.99 618.231 736.098 617.656L739.679 617.676C739.545 618.607 739.254 619.482 738.808 620.299C738.367 621.116 737.79 621.837 737.075 622.463C736.36 623.082 735.524 623.567 734.566 623.918C733.609 624.263 732.546 624.435 731.378 624.435C729.655 624.435 728.117 624.036 726.763 623.238C725.41 622.44 724.344 621.288 723.566 619.782C722.787 618.276 722.398 616.469 722.398 614.363C722.398 612.25 722.79 610.444 723.575 608.944C724.36 607.438 725.429 606.286 726.783 605.488C728.136 604.69 729.668 604.291 731.378 604.291C732.47 604.291 733.484 604.444 734.423 604.751C735.361 605.057 736.197 605.507 736.931 606.101C737.665 606.688 738.268 607.409 738.741 608.264C739.219 609.113 739.532 610.083 739.679 611.175ZM749.193 624.454C747.757 624.454 746.512 624.138 745.459 623.506C744.406 622.874 743.589 621.99 743.008 620.854C742.434 619.718 742.146 618.39 742.146 616.871C742.146 615.352 742.434 614.022 743.008 612.879C743.589 611.737 744.406 610.849 745.459 610.217C746.512 609.586 747.757 609.27 749.193 609.27C750.629 609.27 751.874 609.586 752.927 610.217C753.98 610.849 754.794 611.737 755.368 612.879C755.949 614.022 756.239 615.352 756.239 616.871C756.239 618.39 755.949 619.718 755.368 620.854C754.794 621.99 753.98 622.874 752.927 623.506C751.874 624.138 750.629 624.454 749.193 624.454ZM749.212 621.678C749.991 621.678 750.642 621.464 751.165 621.036C751.689 620.602 752.078 620.021 752.333 619.294C752.595 618.566 752.726 617.755 752.726 616.862C752.726 615.962 752.595 615.148 752.333 614.42C752.078 613.686 751.689 613.102 751.165 612.668C750.642 612.234 749.991 612.017 749.212 612.017C748.414 612.017 747.75 612.234 747.221 612.668C746.697 613.102 746.305 613.686 746.043 614.42C745.788 615.148 745.66 615.962 745.66 616.862C745.66 617.755 745.788 618.566 746.043 619.294C746.305 620.021 746.697 620.602 747.221 621.036C747.75 621.464 748.414 621.678 749.212 621.678ZM762.647 604.559V624.167H759.181V604.559H762.647ZM769.677 604.559V624.167H766.211V604.559H769.677ZM779.751 624.454C778.277 624.454 777.003 624.148 775.931 623.535C774.865 622.916 774.045 622.041 773.47 620.912C772.896 619.776 772.609 618.438 772.609 616.9C772.609 615.387 772.896 614.06 773.47 612.917C774.051 611.768 774.862 610.875 775.902 610.237C776.943 609.592 778.165 609.27 779.569 609.27C780.475 609.27 781.331 609.416 782.135 609.71C782.945 609.997 783.66 610.444 784.279 611.05C784.905 611.657 785.396 612.429 785.754 613.367C786.111 614.299 786.29 615.41 786.29 616.699V617.762H774.236V615.426H782.968C782.961 614.762 782.818 614.172 782.537 613.655C782.256 613.131 781.864 612.719 781.359 612.419C780.861 612.119 780.281 611.969 779.617 611.969C778.908 611.969 778.286 612.142 777.75 612.486C777.214 612.825 776.796 613.272 776.496 613.827C776.202 614.376 776.052 614.979 776.046 615.636V617.676C776.046 618.531 776.202 619.265 776.515 619.878C776.828 620.484 777.265 620.95 777.827 621.275C778.388 621.595 779.046 621.754 779.799 621.754C780.303 621.754 780.759 621.684 781.168 621.544C781.576 621.397 781.931 621.183 782.231 620.902C782.531 620.621 782.757 620.273 782.91 619.858L786.146 620.222C785.942 621.078 785.553 621.824 784.978 622.463C784.41 623.095 783.683 623.586 782.795 623.937C781.908 624.282 780.893 624.454 779.751 624.454ZM795.617 629.988C794.373 629.988 793.304 629.819 792.41 629.48C791.517 629.149 790.799 628.702 790.256 628.14C789.714 627.578 789.337 626.956 789.126 626.273L792.247 625.517C792.388 625.804 792.592 626.088 792.86 626.369C793.128 626.656 793.489 626.892 793.942 627.077C794.402 627.269 794.979 627.365 795.675 627.365C796.658 627.365 797.472 627.125 798.116 626.646C798.761 626.174 799.083 625.395 799.083 624.31V621.524H798.911C798.732 621.882 798.471 622.249 798.126 622.625C797.788 623.002 797.338 623.318 796.776 623.573C796.221 623.829 795.522 623.956 794.679 623.956C793.55 623.956 792.525 623.691 791.606 623.162C790.693 622.625 789.966 621.828 789.423 620.768C788.887 619.702 788.619 618.368 788.619 616.766C788.619 615.151 788.887 613.789 789.423 612.678C789.966 611.561 790.696 610.715 791.616 610.141C792.535 609.56 793.559 609.27 794.689 609.27C795.55 609.27 796.259 609.416 796.814 609.71C797.376 609.997 797.823 610.345 798.155 610.754C798.487 611.156 798.739 611.535 798.911 611.893H799.102V609.461H802.52V624.406C802.52 625.664 802.22 626.704 801.62 627.527C801.02 628.351 800.2 628.967 799.16 629.375C798.12 629.784 796.939 629.988 795.617 629.988ZM795.646 621.237C796.38 621.237 797.006 621.058 797.523 620.701C798.04 620.344 798.432 619.83 798.7 619.16C798.968 618.489 799.102 617.685 799.102 616.747C799.102 615.821 798.968 615.011 798.7 614.315C798.439 613.619 798.049 613.08 797.532 612.697C797.022 612.308 796.393 612.113 795.646 612.113C794.874 612.113 794.229 612.314 793.712 612.716C793.195 613.118 792.806 613.67 792.544 614.373C792.283 615.068 792.152 615.86 792.152 616.747C792.152 617.647 792.283 618.435 792.544 619.112C792.812 619.782 793.205 620.305 793.722 620.682C794.245 621.052 794.887 621.237 795.646 621.237ZM812.583 624.454C811.108 624.454 809.835 624.148 808.763 623.535C807.697 622.916 806.877 622.041 806.302 620.912C805.728 619.776 805.44 618.438 805.44 616.9C805.44 615.387 805.728 614.06 806.302 612.917C806.883 611.768 807.694 610.875 808.734 610.237C809.774 609.592 810.997 609.27 812.401 609.27C813.307 609.27 814.162 609.416 814.967 609.71C815.777 609.997 816.492 610.444 817.111 611.05C817.737 611.657 818.228 612.429 818.586 613.367C818.943 614.299 819.122 615.41 819.122 616.699V617.762H807.068V615.426H815.8C815.793 614.762 815.65 614.172 815.369 613.655C815.088 613.131 814.695 612.719 814.191 612.419C813.693 612.119 813.112 611.969 812.449 611.969C811.74 611.969 811.118 612.142 810.582 612.486C810.046 612.825 809.627 613.272 809.328 613.827C809.034 614.376 808.884 614.979 808.878 615.636V617.676C808.878 618.531 809.034 619.265 809.347 619.878C809.659 620.484 810.097 620.95 810.658 621.275C811.22 621.595 811.877 621.754 812.631 621.754C813.135 621.754 813.591 621.684 814 621.544C814.408 621.397 814.762 621.183 815.062 620.902C815.362 620.621 815.589 620.273 815.742 619.858L818.978 620.222C818.774 621.078 818.385 621.824 817.81 622.463C817.242 623.095 816.514 623.586 815.627 623.937C814.74 624.282 813.725 624.454 812.583 624.454ZM846.415 614.363C846.415 616.476 846.019 618.285 845.228 619.791C844.443 621.291 843.37 622.44 842.011 623.238C840.658 624.036 839.123 624.435 837.406 624.435C835.689 624.435 834.151 624.036 832.791 623.238C831.438 622.434 830.366 621.282 829.574 619.782C828.789 618.276 828.397 616.469 828.397 614.363C828.397 612.25 828.789 610.444 829.574 608.944C830.366 607.438 831.438 606.286 832.791 605.488C834.151 604.69 835.689 604.291 837.406 604.291C839.123 604.291 840.658 604.69 842.011 605.488C843.37 606.286 844.443 607.438 845.228 608.944C846.019 610.444 846.415 612.25 846.415 614.363ZM842.844 614.363C842.844 612.876 842.611 611.622 842.145 610.6C841.685 609.573 841.047 608.797 840.23 608.274C839.413 607.744 838.472 607.479 837.406 607.479C836.34 607.479 835.398 607.744 834.581 608.274C833.764 608.797 833.123 609.573 832.657 610.6C832.197 611.622 831.968 612.876 831.968 614.363C831.968 615.85 832.197 617.108 832.657 618.135C833.123 619.156 833.764 619.932 834.581 620.462C835.398 620.985 836.34 621.247 837.406 621.247C838.472 621.247 839.413 620.985 840.23 620.462C841.047 619.932 841.685 619.156 842.145 618.135C842.611 617.108 842.844 615.85 842.844 614.363ZM857.068 609.461V612.142H848.375V609.461H857.068ZM850.549 624.167V608.073C850.549 607.084 850.753 606.26 851.161 605.603C851.576 604.945 852.131 604.454 852.827 604.128C853.523 603.803 854.295 603.64 855.144 603.64C855.744 603.64 856.277 603.688 856.743 603.784C857.209 603.879 857.554 603.966 857.777 604.042L857.088 606.723C856.941 606.678 856.756 606.634 856.532 606.589C856.309 606.538 856.06 606.512 855.786 606.512C855.141 606.512 854.685 606.669 854.416 606.981C854.155 607.288 854.024 607.728 854.024 608.303V624.167H850.549ZM866.623 624.167V604.559H879.376V607.537H870.175V612.86H878.715V615.837H870.175V621.189H879.453V624.167H866.623ZM886.312 615.55V624.167H882.847V609.461H886.159V611.96H886.331C886.67 611.137 887.209 610.482 887.949 609.997C888.696 609.512 889.619 609.27 890.716 609.27C891.731 609.27 892.615 609.487 893.368 609.921C894.128 610.355 894.715 610.983 895.13 611.807C895.551 612.63 895.759 613.629 895.752 614.803V624.167H892.287V615.34C892.287 614.357 892.031 613.587 891.521 613.032C891.016 612.477 890.317 612.199 889.424 612.199C888.818 612.199 888.278 612.333 887.806 612.601C887.34 612.863 886.973 613.243 886.705 613.741C886.443 614.239 886.312 614.842 886.312 615.55ZM905.671 629.988C904.426 629.988 903.357 629.819 902.464 629.48C901.57 629.149 900.852 628.702 900.31 628.14C899.767 627.578 899.39 626.956 899.18 626.273L902.301 625.517C902.441 625.804 902.646 626.088 902.914 626.369C903.182 626.656 903.542 626.892 903.996 627.077C904.455 627.269 905.033 627.365 905.728 627.365C906.711 627.365 907.525 627.125 908.17 626.646C908.815 626.174 909.137 625.395 909.137 624.31V621.524H908.965C908.786 621.882 908.524 622.249 908.179 622.625C907.841 623.002 907.391 623.318 906.829 623.573C906.274 623.829 905.575 623.956 904.733 623.956C903.603 623.956 902.579 623.691 901.66 623.162C900.747 622.625 900.019 621.828 899.477 620.768C898.94 619.702 898.672 618.368 898.672 616.766C898.672 615.151 898.94 613.789 899.477 612.678C900.019 611.561 900.75 610.715 901.669 610.141C902.588 609.56 903.613 609.27 904.742 609.27C905.604 609.27 906.313 609.416 906.868 609.71C907.429 609.997 907.876 610.345 908.208 610.754C908.54 611.156 908.792 611.535 908.965 611.893H909.156V609.461H912.574V624.406C912.574 625.664 912.274 626.704 911.674 627.527C911.074 628.351 910.254 628.967 909.213 629.375C908.173 629.784 906.992 629.988 905.671 629.988ZM905.7 621.237C906.434 621.237 907.059 621.058 907.576 620.701C908.093 620.344 908.486 619.83 908.754 619.16C909.022 618.489 909.156 617.685 909.156 616.747C909.156 615.821 909.022 615.011 908.754 614.315C908.492 613.619 908.103 613.08 907.586 612.697C907.075 612.308 906.447 612.113 905.7 612.113C904.927 612.113 904.283 612.314 903.766 612.716C903.249 613.118 902.859 613.67 902.598 614.373C902.336 615.068 902.205 615.86 902.205 616.747C902.205 617.647 902.336 618.435 902.598 619.112C902.866 619.782 903.258 620.305 903.775 620.682C904.299 621.052 904.94 621.237 905.7 621.237ZM916.126 624.167V609.461H919.592V624.167H916.126ZM917.868 607.374C917.319 607.374 916.847 607.192 916.451 606.828C916.056 606.458 915.858 606.014 915.858 605.497C915.858 604.974 916.056 604.53 916.451 604.167C916.847 603.796 917.319 603.611 917.868 603.611C918.424 603.611 918.896 603.796 919.285 604.167C919.681 604.53 919.879 604.974 919.879 605.497C919.879 606.014 919.681 606.458 919.285 606.828C918.896 607.192 918.424 607.374 917.868 607.374ZM926.621 615.55V624.167H923.156V609.461H926.468V611.96H926.641C926.979 611.137 927.518 610.482 928.259 609.997C929.005 609.512 929.928 609.27 931.026 609.27C932.04 609.27 932.924 609.487 933.678 609.921C934.437 610.355 935.024 610.983 935.439 611.807C935.86 612.63 936.068 613.629 936.061 614.803V624.167H932.596V615.34C932.596 614.357 932.34 613.587 931.83 613.032C931.325 612.477 930.627 612.199 929.733 612.199C929.127 612.199 928.587 612.333 928.115 612.601C927.649 612.863 927.282 613.243 927.014 613.741C926.752 614.239 926.621 614.842 926.621 615.55ZM946.095 624.454C944.621 624.454 943.347 624.148 942.275 623.535C941.209 622.916 940.389 622.041 939.814 620.912C939.24 619.776 938.953 618.438 938.953 616.9C938.953 615.387 939.24 614.06 939.814 612.917C940.395 611.768 941.206 610.875 942.246 610.237C943.287 609.592 944.509 609.27 945.913 609.27C946.819 609.27 947.675 609.416 948.479 609.71C949.29 609.997 950.004 610.444 950.624 611.05C951.249 611.657 951.741 612.429 952.098 613.367C952.455 614.299 952.634 615.41 952.634 616.699V617.762H940.58V615.426H949.312C949.306 614.762 949.162 614.172 948.881 613.655C948.6 613.131 948.208 612.719 947.703 612.419C947.206 612.119 946.625 611.969 945.961 611.969C945.253 611.969 944.63 612.142 944.094 612.486C943.558 612.825 943.14 613.272 942.84 613.827C942.546 614.376 942.396 614.979 942.39 615.636V617.676C942.39 618.531 942.546 619.265 942.859 619.878C943.172 620.484 943.609 620.95 944.171 621.275C944.732 621.595 945.39 621.754 946.143 621.754C946.647 621.754 947.104 621.684 947.512 621.544C947.92 621.397 948.275 621.183 948.575 620.902C948.875 620.621 949.101 620.273 949.254 619.858L952.49 620.222C952.286 621.078 951.897 621.824 951.322 622.463C950.754 623.095 950.027 623.586 949.14 623.937C948.252 624.282 947.238 624.454 946.095 624.454ZM962.076 624.454C960.602 624.454 959.329 624.148 958.256 623.535C957.191 622.916 956.37 622.041 955.796 620.912C955.221 619.776 954.934 618.438 954.934 616.9C954.934 615.387 955.221 614.06 955.796 612.917C956.377 611.768 957.187 610.875 958.228 610.237C959.268 609.592 960.49 609.27 961.895 609.27C962.801 609.27 963.656 609.416 964.46 609.71C965.271 609.997 965.986 610.444 966.605 611.05C967.231 611.657 967.722 612.429 968.079 613.367C968.437 614.299 968.616 615.41 968.616 616.699V617.762H956.562V615.426H965.293C965.287 614.762 965.143 614.172 964.863 613.655C964.582 613.131 964.189 612.719 963.685 612.419C963.187 612.119 962.606 611.969 961.942 611.969C961.234 611.969 960.612 612.142 960.076 612.486C959.539 612.825 959.121 613.272 958.821 613.827C958.528 614.376 958.378 614.979 958.371 615.636V617.676C958.371 618.531 958.528 619.265 958.84 619.878C959.153 620.484 959.59 620.95 960.152 621.275C960.714 621.595 961.371 621.754 962.124 621.754C962.629 621.754 963.085 621.684 963.493 621.544C963.902 621.397 964.256 621.183 964.556 620.902C964.856 620.621 965.083 620.273 965.236 619.858L968.472 620.222C968.268 621.078 967.878 621.824 967.304 622.463C966.736 623.095 966.008 623.586 965.121 623.937C964.234 624.282 963.219 624.454 962.076 624.454ZM971.548 624.167V609.461H974.908V611.912H975.061C975.329 611.063 975.789 610.409 976.44 609.949C977.097 609.483 977.847 609.25 978.69 609.25C978.881 609.25 979.095 609.26 979.331 609.279C979.574 609.292 979.775 609.314 979.934 609.346V612.534C979.788 612.483 979.555 612.439 979.236 612.4C978.923 612.356 978.62 612.333 978.326 612.333C977.694 612.333 977.126 612.471 976.622 612.745C976.124 613.013 975.731 613.386 975.444 613.865C975.157 614.344 975.013 614.896 975.013 615.521V624.167H971.548ZM982.237 624.167V609.461H985.703V624.167H982.237ZM983.979 607.374C983.431 607.374 982.958 607.192 982.563 606.828C982.167 606.458 981.969 606.014 981.969 605.497C981.969 604.974 982.167 604.53 982.563 604.167C982.958 603.796 983.431 603.611 983.979 603.611C984.535 603.611 985.007 603.796 985.396 604.167C985.792 604.53 985.99 604.974 985.99 605.497C985.99 606.014 985.792 606.458 985.396 606.828C985.007 607.192 984.535 607.374 983.979 607.374ZM992.733 615.55V624.167H989.267V609.461H992.579V611.96H992.752C993.09 611.137 993.629 610.482 994.37 609.997C995.117 609.512 996.039 609.27 997.137 609.27C998.151 609.27 999.035 609.487 999.789 609.921C1000.55 610.355 1001.14 610.983 1001.55 611.807C1001.97 612.63 1002.18 613.629 1002.17 614.803V624.167H998.707V615.34C998.707 614.357 998.451 613.587 997.941 613.032C997.437 612.477 996.738 612.199 995.844 612.199C995.238 612.199 994.698 612.333 994.226 612.601C993.76 612.863 993.393 613.243 993.125 613.741C992.863 614.239 992.733 614.842 992.733 615.55ZM1012.09 629.988C1010.85 629.988 1009.78 629.819 1008.88 629.48C1007.99 629.149 1007.27 628.702 1006.73 628.14C1006.19 627.578 1005.81 626.956 1005.6 626.273L1008.72 625.517C1008.86 625.804 1009.07 626.088 1009.33 626.369C1009.6 626.656 1009.96 626.892 1010.42 627.077C1010.88 627.269 1011.45 627.365 1012.15 627.365C1013.13 627.365 1013.95 627.125 1014.59 626.646C1015.23 626.174 1015.56 625.395 1015.56 624.31V621.524H1015.38C1015.21 621.882 1014.94 622.249 1014.6 622.625C1014.26 623.002 1013.81 623.318 1013.25 623.573C1012.69 623.829 1012 623.956 1011.15 623.956C1010.02 623.956 1009 623.691 1008.08 623.162C1007.17 622.625 1006.44 621.828 1005.9 620.768C1005.36 619.702 1005.09 618.368 1005.09 616.766C1005.09 615.151 1005.36 613.789 1005.9 612.678C1006.44 611.561 1007.17 610.715 1008.09 610.141C1009.01 609.56 1010.03 609.27 1011.16 609.27C1012.02 609.27 1012.73 609.416 1013.29 609.71C1013.85 609.997 1014.3 610.345 1014.63 610.754C1014.96 611.156 1015.21 611.535 1015.38 611.893H1015.58V609.461H1018.99V624.406C1018.99 625.664 1018.69 626.704 1018.09 627.527C1017.49 628.351 1016.67 628.967 1015.63 629.375C1014.59 629.784 1013.41 629.988 1012.09 629.988ZM1012.12 621.237C1012.85 621.237 1013.48 621.058 1014 620.701C1014.51 620.344 1014.91 619.83 1015.17 619.16C1015.44 618.489 1015.58 617.685 1015.58 616.747C1015.58 615.821 1015.44 615.011 1015.17 614.315C1014.91 613.619 1014.52 613.08 1014.01 612.697C1013.5 612.308 1012.87 612.113 1012.12 612.113C1011.35 612.113 1010.7 612.314 1010.19 612.716C1009.67 613.118 1009.28 613.67 1009.02 614.373C1008.76 615.068 1008.63 615.86 1008.63 616.747C1008.63 617.647 1008.76 618.435 1009.02 619.112C1009.29 619.782 1009.68 620.305 1010.2 620.682C1010.72 621.052 1011.36 621.237 1012.12 621.237ZM1031.46 614.574V617.427H1022.63V614.574H1031.46ZM1035.26 624.167V604.559H1042.61C1044.12 604.559 1045.38 604.84 1046.4 605.402C1047.43 605.963 1048.21 606.736 1048.73 607.719C1049.26 608.695 1049.52 609.806 1049.52 611.05C1049.52 612.308 1049.26 613.425 1048.73 614.401C1048.2 615.378 1047.42 616.147 1046.38 616.709C1045.35 617.264 1044.08 617.542 1042.56 617.542H1037.69V614.621H1042.08C1042.97 614.621 1043.69 614.468 1044.25 614.162C1044.81 613.856 1045.22 613.434 1045.49 612.898C1045.77 612.362 1045.9 611.746 1045.9 611.05C1045.9 610.355 1045.77 609.742 1045.49 609.212C1045.22 608.682 1044.81 608.271 1044.24 607.977C1043.68 607.677 1042.95 607.527 1042.07 607.527H1038.81V624.167H1035.26ZM1061.83 617.982V609.461H1065.29V624.167H1061.93V621.553H1061.78C1061.45 622.376 1060.9 623.05 1060.14 623.573C1059.39 624.097 1058.46 624.358 1057.36 624.358C1056.39 624.358 1055.54 624.144 1054.8 623.717C1054.07 623.283 1053.49 622.654 1053.08 621.831C1052.66 621.001 1052.46 619.999 1052.46 618.824V609.461H1055.92V618.288C1055.92 619.22 1056.18 619.961 1056.69 620.51C1057.2 621.058 1057.87 621.333 1058.7 621.333C1059.21 621.333 1059.7 621.208 1060.18 620.96C1060.66 620.711 1061.05 620.34 1061.36 619.849C1061.67 619.351 1061.83 618.729 1061.83 617.982ZM1072.32 615.55V624.167H1068.86V609.461H1072.17V611.96H1072.34C1072.68 611.137 1073.22 610.482 1073.96 609.997C1074.71 609.512 1075.63 609.27 1076.73 609.27C1077.74 609.27 1078.63 609.487 1079.38 609.921C1080.14 610.355 1080.73 610.983 1081.14 611.807C1081.56 612.63 1081.77 613.629 1081.76 614.803V624.167H1078.3V615.34C1078.3 614.357 1078.04 613.587 1077.53 613.032C1077.03 612.477 1076.33 612.199 1075.44 612.199C1074.83 612.199 1074.29 612.333 1073.82 612.601C1073.35 612.863 1072.98 613.243 1072.72 613.741C1072.45 614.239 1072.32 614.842 1072.32 615.55ZM1091.8 624.454C1090.32 624.454 1089.05 624.148 1087.98 623.535C1086.91 622.916 1086.09 622.041 1085.52 620.912C1084.94 619.776 1084.66 618.438 1084.66 616.9C1084.66 615.387 1084.94 614.06 1085.52 612.917C1086.1 611.768 1086.91 610.875 1087.95 610.237C1088.99 609.592 1090.21 609.27 1091.62 609.27C1092.52 609.27 1093.38 609.416 1094.18 609.71C1094.99 609.997 1095.71 610.444 1096.33 611.05C1096.95 611.657 1097.44 612.429 1097.8 613.367C1098.16 614.299 1098.34 615.41 1098.34 616.699V617.762H1086.28V615.426H1095.01C1095.01 614.762 1094.86 614.172 1094.58 613.655C1094.3 613.131 1093.91 612.719 1093.41 612.419C1092.91 612.119 1092.33 611.969 1091.66 611.969C1090.96 611.969 1090.33 612.142 1089.8 612.486C1089.26 612.825 1088.84 613.272 1088.54 613.827C1088.25 614.376 1088.1 614.979 1088.09 615.636V617.676C1088.09 618.531 1088.25 619.265 1088.56 619.878C1088.87 620.484 1089.31 620.95 1089.87 621.275C1090.43 621.595 1091.09 621.754 1091.85 621.754C1092.35 621.754 1092.81 621.684 1093.21 621.544C1093.62 621.397 1093.98 621.183 1094.28 620.902C1094.58 620.621 1094.8 620.273 1094.96 619.858L1098.19 620.222C1097.99 621.078 1097.6 621.824 1097.02 622.463C1096.46 623.095 1095.73 623.586 1094.84 623.937C1093.95 624.282 1092.94 624.454 1091.8 624.454Z" fill="white"/>
<path d="M440.501 612.797C440.501 614.909 440.105 616.719 439.314 618.225C438.529 619.725 437.456 620.874 436.097 621.672C434.744 622.47 433.209 622.869 431.492 622.869C429.775 622.869 428.236 622.47 426.877 621.672C425.524 620.868 424.452 619.716 423.66 618.216C422.875 616.709 422.482 614.903 422.482 612.797C422.482 610.684 422.875 608.878 423.66 607.378C424.452 605.872 425.524 604.719 426.877 603.922C428.236 603.124 429.775 602.725 431.492 602.725C433.209 602.725 434.744 603.124 436.097 603.922C437.456 604.719 438.529 605.872 439.314 607.378C440.105 608.878 440.501 610.684 440.501 612.797ZM436.93 612.797C436.93 611.31 436.697 610.055 436.231 609.034C435.771 608.007 435.133 607.231 434.316 606.708C433.499 606.178 432.558 605.913 431.492 605.913C430.426 605.913 429.484 606.178 428.667 606.708C427.85 607.231 427.209 608.007 426.743 609.034C426.283 610.055 426.054 611.31 426.054 612.797C426.054 614.284 426.283 615.541 426.743 616.569C427.209 617.59 427.85 618.366 428.667 618.895C429.484 619.419 430.426 619.681 431.492 619.681C432.558 619.681 433.499 619.419 434.316 618.895C435.133 618.366 435.771 617.59 436.231 616.569C436.697 615.541 436.93 614.284 436.93 612.797ZM447.172 613.984V622.601H443.706V607.895H447.018V610.394H447.191C447.529 609.57 448.068 608.916 448.809 608.431C449.555 607.946 450.478 607.703 451.576 607.703C452.59 607.703 453.474 607.92 454.228 608.354C454.987 608.788 455.574 609.417 455.989 610.241C456.41 611.064 456.618 612.063 456.612 613.237V622.601H453.146V613.773C453.146 612.79 452.89 612.021 452.38 611.466C451.876 610.911 451.177 610.633 450.283 610.633C449.677 610.633 449.137 610.767 448.665 611.035C448.199 611.297 447.832 611.677 447.564 612.174C447.302 612.672 447.172 613.275 447.172 613.984ZM483.759 609.609H480.178C480.076 609.021 479.888 608.501 479.613 608.048C479.339 607.588 478.997 607.199 478.589 606.88C478.18 606.561 477.714 606.322 477.191 606.162C476.674 605.996 476.115 605.913 475.515 605.913C474.45 605.913 473.505 606.181 472.682 606.717C471.858 607.247 471.214 608.026 470.748 609.053C470.282 610.075 470.049 611.322 470.049 612.797C470.049 614.297 470.282 615.56 470.748 616.588C471.22 617.609 471.865 618.382 472.682 618.905C473.505 619.422 474.446 619.681 475.506 619.681C476.093 619.681 476.642 619.604 477.153 619.451C477.67 619.291 478.132 619.058 478.541 618.752C478.956 618.445 479.304 618.069 479.584 617.622C479.872 617.175 480.07 616.665 480.178 616.09L483.759 616.109C483.625 617.041 483.334 617.916 482.887 618.733C482.447 619.55 481.869 620.271 481.155 620.896C480.44 621.516 479.604 622.001 478.646 622.352C477.689 622.696 476.626 622.869 475.458 622.869C473.735 622.869 472.196 622.47 470.843 621.672C469.49 620.874 468.424 619.722 467.646 618.216C466.867 616.709 466.478 614.903 466.478 612.797C466.478 610.684 466.87 608.878 467.655 607.378C468.44 605.872 469.509 604.719 470.862 603.922C472.216 603.124 473.747 602.725 475.458 602.725C476.549 602.725 477.564 602.878 478.503 603.184C479.441 603.491 480.277 603.941 481.011 604.534C481.745 605.122 482.348 605.843 482.82 606.698C483.299 607.547 483.612 608.517 483.759 609.609ZM491.09 622.897C490.158 622.897 489.319 622.731 488.572 622.4C487.832 622.061 487.244 621.563 486.81 620.906C486.383 620.249 486.169 619.438 486.169 618.474C486.169 617.644 486.322 616.958 486.629 616.416C486.935 615.873 487.353 615.439 487.883 615.114C488.413 614.788 489.009 614.542 489.673 614.376C490.343 614.204 491.036 614.08 491.751 614.003C492.612 613.914 493.311 613.834 493.847 613.764C494.384 613.687 494.773 613.572 495.015 613.419C495.264 613.26 495.389 613.014 495.389 612.682V612.624C495.389 611.903 495.175 611.345 494.747 610.949C494.32 610.553 493.704 610.355 492.9 610.355C492.051 610.355 491.377 610.54 490.879 610.911C490.388 611.281 490.056 611.718 489.884 612.222L486.648 611.763C486.903 610.869 487.324 610.122 487.911 609.522C488.499 608.916 489.217 608.463 490.066 608.163C490.915 607.857 491.853 607.703 492.88 607.703C493.589 607.703 494.294 607.786 494.996 607.952C495.698 608.118 496.34 608.393 496.921 608.776C497.501 609.152 497.967 609.666 498.318 610.317C498.676 610.968 498.855 611.782 498.855 612.758V622.601H495.523V620.58H495.408C495.197 620.989 494.901 621.372 494.518 621.729C494.141 622.08 493.665 622.364 493.091 622.581C492.523 622.792 491.856 622.897 491.09 622.897ZM491.99 620.351C492.686 620.351 493.289 620.213 493.799 619.939C494.31 619.658 494.703 619.288 494.977 618.828C495.258 618.369 495.398 617.868 495.398 617.325V615.592C495.29 615.682 495.105 615.765 494.843 615.841C494.588 615.918 494.301 615.985 493.981 616.042C493.662 616.1 493.346 616.151 493.034 616.196C492.721 616.24 492.45 616.279 492.22 616.31C491.703 616.381 491.24 616.496 490.832 616.655C490.423 616.815 490.101 617.038 489.865 617.325C489.628 617.606 489.51 617.97 489.51 618.417C489.51 619.055 489.743 619.537 490.209 619.862C490.675 620.188 491.269 620.351 491.99 620.351ZM502.34 622.601V607.895H505.652V610.394H505.824C506.131 609.551 506.638 608.894 507.347 608.421C508.055 607.943 508.901 607.703 509.884 607.703C510.88 607.703 511.719 607.946 512.402 608.431C513.091 608.91 513.576 609.564 513.857 610.394H514.01C514.336 609.577 514.885 608.926 515.657 608.441C516.436 607.949 517.358 607.703 518.424 607.703C519.777 607.703 520.881 608.131 521.737 608.986C522.592 609.842 523.019 611.089 523.019 612.73V622.601H519.544V613.266C519.544 612.353 519.302 611.686 518.816 611.265C518.331 610.837 517.738 610.623 517.036 610.623C516.2 610.623 515.545 610.885 515.073 611.409C514.607 611.926 514.374 612.599 514.374 613.429V622.601H510.975V613.122C510.975 612.363 510.746 611.756 510.286 611.303C509.833 610.85 509.239 610.623 508.505 610.623C508.007 610.623 507.554 610.751 507.146 611.006C506.737 611.255 506.412 611.61 506.169 612.069C505.927 612.522 505.805 613.052 505.805 613.658V622.601H502.34ZM526.536 628.115V607.895H529.944V610.327H530.145C530.324 609.969 530.576 609.589 530.901 609.187C531.227 608.779 531.667 608.431 532.223 608.144C532.778 607.85 533.486 607.703 534.348 607.703C535.484 607.703 536.508 607.994 537.421 608.575C538.34 609.149 539.068 610.001 539.604 611.131C540.147 612.254 540.418 613.633 540.418 615.267C540.418 616.882 540.153 618.254 539.623 619.384C539.093 620.513 538.372 621.375 537.46 621.969C536.547 622.562 535.513 622.859 534.358 622.859C533.515 622.859 532.816 622.719 532.261 622.438C531.706 622.157 531.259 621.819 530.92 621.423C530.589 621.021 530.33 620.641 530.145 620.284H530.001V628.115H526.536ZM529.934 615.248C529.934 616.199 530.068 617.032 530.336 617.747C530.611 618.461 531.003 619.02 531.514 619.422C532.031 619.818 532.657 620.016 533.391 620.016C534.156 620.016 534.798 619.811 535.315 619.403C535.832 618.988 536.221 618.423 536.483 617.708C536.751 616.987 536.885 616.167 536.885 615.248C536.885 614.335 536.754 613.524 536.493 612.816C536.231 612.107 535.841 611.552 535.324 611.15C534.807 610.748 534.163 610.547 533.391 610.547C532.65 610.547 532.021 610.742 531.504 611.131C530.987 611.52 530.595 612.066 530.327 612.768C530.065 613.47 529.934 614.297 529.934 615.248ZM552.759 616.416V607.895H556.225V622.601H552.864V619.987H552.711C552.379 620.81 551.833 621.484 551.074 622.007C550.321 622.53 549.392 622.792 548.288 622.792C547.324 622.792 546.472 622.578 545.731 622.151C544.997 621.717 544.423 621.088 544.008 620.265C543.593 619.435 543.386 618.433 543.386 617.258V607.895H546.852V616.722C546.852 617.654 547.107 618.394 547.618 618.943C548.128 619.492 548.798 619.767 549.628 619.767C550.139 619.767 550.633 619.642 551.112 619.393C551.591 619.144 551.983 618.774 552.29 618.283C552.602 617.785 552.759 617.163 552.759 616.416ZM571.411 611.782L568.252 612.127C568.163 611.807 568.006 611.507 567.783 611.227C567.566 610.946 567.272 610.719 566.902 610.547C566.532 610.375 566.079 610.288 565.543 610.288C564.821 610.288 564.215 610.445 563.723 610.758C563.238 611.07 562.999 611.476 563.005 611.973C562.999 612.401 563.155 612.749 563.475 613.017C563.8 613.285 564.336 613.505 565.083 613.678L567.591 614.214C568.983 614.514 570.017 614.989 570.693 615.64C571.376 616.291 571.721 617.143 571.727 618.197C571.721 619.122 571.45 619.939 570.914 620.647C570.384 621.35 569.647 621.898 568.702 622.294C567.757 622.69 566.672 622.888 565.447 622.888C563.647 622.888 562.198 622.511 561.1 621.758C560.002 620.999 559.348 619.942 559.138 618.589L562.517 618.264C562.67 618.927 562.996 619.428 563.494 619.767C563.992 620.105 564.639 620.274 565.437 620.274C566.261 620.274 566.921 620.105 567.419 619.767C567.923 619.428 568.175 619.01 568.175 618.512C568.175 618.091 568.013 617.743 567.687 617.469C567.368 617.194 566.87 616.984 566.194 616.837L563.685 616.31C562.275 616.017 561.231 615.522 560.554 614.826C559.878 614.124 559.543 613.237 559.549 612.165C559.543 611.259 559.789 610.473 560.286 609.81C560.791 609.139 561.49 608.622 562.383 608.259C563.283 607.888 564.32 607.703 565.495 607.703C567.218 607.703 568.574 608.07 569.564 608.804C570.559 609.538 571.175 610.531 571.411 611.782Z" fill="#4285F5"/>
<path d="M583.805 618.537C585.103 618.537 586.155 617.485 586.155 616.187C586.155 614.889 585.103 613.837 583.805 613.837C582.507 613.837 581.455 614.889 581.455 616.187C581.455 617.485 582.507 618.537 583.805 618.537Z" fill="#4285F5"/>
<path d="M1536 0H0V53H1536V0Z" fill="url(#paint0_linear_0_1)"/>
<path d="M61.913 28.4572C64.3912 27.0338 66.8628 25.5988 69.3495 24.1902C71.7098 22.8529 74.4868 24.0862 75.0219 26.6886C75.3316 28.1941 74.6594 29.8204 73.3003 30.6125C68.8442 33.2092 64.3818 35.7957 59.8971 38.3425C58.509 39.1308 57.0792 38.9858 55.8142 38.0198C54.5292 37.0391 54.1242 35.6864 54.4256 34.1119C54.7697 32.9134 55.5572 32.1121 56.6312 31.5126C58.4069 30.5216 60.1538 29.4784 61.913 28.4572Z" fill="#F4B400"/>
<path d="M63.7324 27.4223C61.2604 25.9879 58.7822 24.5647 56.3188 23.1157C53.9804 21.7401 53.6603 18.7186 55.6463 16.9537C56.7952 15.9331 58.5397 15.7018 59.9053 16.4828C64.3822 19.0435 68.8533 21.615 73.3012 24.2254C74.6779 25.0333 75.267 26.3443 75.0634 27.9228C74.8564 29.5257 73.8875 30.5528 72.3734 31.0792C71.1632 31.3806 70.0756 31.0991 69.0195 30.4687C67.2732 29.4264 65.4963 28.435 63.7324 27.4223Z" fill="#0F9D58"/>
<path d="M41.202 26.4073C39.6158 27.3085 38.0286 28.2081 36.4441 29.112C35.5171 29.6408 34.6004 30.1877 33.6687 30.7077C31.7914 31.7555 29.561 31.1413 28.4966 29.2957C27.4807 27.5345 28.0645 25.2511 29.8725 24.1957C34.293 21.6155 38.7249 19.0541 43.1728 16.5214C44.5369 15.7446 45.9522 15.8423 47.2137 16.7709C48.5451 17.7511 48.981 19.1303 48.682 20.7472C48.4965 21.1384 48.3857 21.5971 48.1081 21.9053C47.6564 22.4067 47.143 22.8867 46.5715 23.2393C44.803 24.3298 42.9949 25.3561 41.202 26.4073Z" fill="#EA4335"/>
<path d="M39.3833 27.4183C40.957 28.3412 42.5296 29.2662 44.1048 30.1865C45.026 30.7249 45.958 31.2454 46.8741 31.792C48.7203 32.8942 49.3037 35.1327 48.2375 36.9772C47.22 38.7377 44.9508 39.3739 43.1327 38.3357C38.6879 35.7974 34.2538 33.2403 29.8365 30.6546C28.4817 29.8616 27.8587 28.587 28.0322 27.0302C28.2153 25.387 29.1918 24.32 30.7415 23.7704C31.173 23.7356 31.6256 23.602 32.0315 23.6885C32.6915 23.8291 33.364 24.0335 33.955 24.3522C35.7838 25.3384 37.5766 26.3912 39.3833 27.4183Z" fill="#4285F5"/>
<path d="M1428.98 20.7434H1431.91L1435.01 28.3064H1435.15L1438.25 20.7434H1441.18V32H1438.87V24.6733H1438.78L1435.87 31.945H1434.29L1431.38 24.6458H1431.29V32H1428.98V20.7434ZM1443.14 32V20.7434H1450.73V22.7056H1445.52V25.3878H1450.34V27.35H1445.52V30.0378H1450.75V32H1443.14ZM1462.03 20.7434V32H1459.98L1455.08 24.9151H1455V32H1452.62V20.7434H1454.71L1459.57 27.8227H1459.66V20.7434H1462.03ZM1470.95 20.7434H1473.33V28.0536C1473.33 28.8744 1473.14 29.5926 1472.74 30.2082C1472.36 30.8238 1471.81 31.3038 1471.11 31.6482C1470.41 31.989 1469.6 32.1594 1468.67 32.1594C1467.73 32.1594 1466.91 31.989 1466.22 31.6482C1465.52 31.3038 1464.97 30.8238 1464.58 30.2082C1464.19 29.5926 1464 28.8744 1464 28.0536V20.7434H1466.38V27.8502C1466.38 28.2789 1466.47 28.66 1466.66 28.9935C1466.85 29.3269 1467.12 29.5889 1467.46 29.7795C1467.81 29.97 1468.21 30.0653 1468.67 30.0653C1469.13 30.0653 1469.53 29.97 1469.87 29.7795C1470.21 29.5889 1470.48 29.3269 1470.67 28.9935C1470.86 28.66 1470.95 28.2789 1470.95 27.8502V20.7434Z" fill="black"/>
<path d="M1485.19 35.4112C1484.67 35.9262 1484.67 36.7613 1485.19 37.2763C1485.7 37.7914 1486.54 37.7914 1487.05 37.2763L1485.19 35.4112ZM1506.71 17.0701C1506.71 16.3417 1506.12 15.7512 1505.39 15.7512H1493.52C1492.79 15.7512 1492.2 16.3417 1492.2 17.0701C1492.2 17.7985 1492.79 18.389 1493.52 18.389H1504.07V28.9401C1504.07 29.6685 1504.66 30.259 1505.39 30.259C1506.12 30.259 1506.71 29.6685 1506.71 28.9401V17.0701ZM1487.05 37.2763L1506.32 18.0027L1504.46 16.1375L1485.19 35.4112L1487.05 37.2763Z" fill="#4286F5"/>
</g>
</g>
<defs>
<linearGradient id="paint0_linear_0_1" x1="768" y1="53" x2="768" y2="0" gradientUnits="userSpaceOnUse">
<stop stop-color="#DFDFDF"/>
<stop offset="1" stop-color="white"/>
</linearGradient>
<clipPath id="clip0_0_1">
<rect width="1536" height="1024" fill="white"/>
</clipPath>
</defs>
</svg>
